<svg width="21" height="21" viewBox="0 0 21 21" fill="none" xmlns="http://www.w3.org/2000/svg">
<path d="M0.475833 0.000577026C0.205272 0.026076 -0.00111908 0.253812 5.27266e-05 0.525563V4.20046C-0.00262492 4.38979 0.0968495 4.56589 0.260385 4.66134C0.423921 4.75679 0.626182 4.75679 0.789717 4.66134C0.953253 4.56589 1.05273 4.38979 1.05005 4.20046V1.78881L4.06059 4.79927C4.29517 4.53812 4.54577 4.29542 4.80707 4.06101L1.79653 1.05055H4.20004C4.38938 1.05323 4.56548 0.953754 4.66093 0.790222C4.75638 0.62669 4.75638 0.424435 4.66093 0.260903C4.56548 0.0973714 4.38938 -0.00210055 4.20004 0.000577026H0.525051C0.508654 -0.000192342 0.49223 -0.000192342 0.475833 0.000577026ZM4.80707 4.06101L9.81917 9.07298C10.0209 9.2648 10.0231 9.62976 9.82737 9.82765C9.63165 10.0255 9.27492 10.019 9.08089 9.81945L4.06059 4.79927C2.51576 6.51909 1.57505 8.79405 1.57505 11.2878C1.57505 16.6517 5.92347 21 11.2875 21C16.6516 21 21 16.6517 21 11.2878C21 5.92385 16.6516 1.57553 11.2875 1.57553C8.79593 1.57553 6.52639 2.51864 4.80707 4.06101Z" fill="#FF4949"/>
</svg>
