<svg width="245" height="312" viewBox="0 0 245 312" fill="none" xmlns="http://www.w3.org/2000/svg">
  <path d="M168.637 23.9082C248.055 23.9082 312.437 88.2878 312.437 167.704C312.437 247.12 248.055 311.5 168.637 311.5C89.2187 311.5 24.8372 247.12 24.8372 167.704C24.8372 130.972 38.6229 97.4477 61.2864 72.0312L135.499 146.242C138.572 149.397 144.19 149.506 147.299 146.362C148.861 144.783 149.617 142.557 149.597 140.366C149.578 138.313 148.876 136.245 147.459 134.731L147.166 134.437L73.0842 60.3564C98.4931 37.7282 131.938 23.9082 168.637 23.9082ZM1.43774 7.80664C1.42146 4.02971 4.28848 0.863776 8.0481 0.506836C8.26998 0.496985 8.49224 0.497402 8.71411 0.507812L8.72583 0.508789H63.5911C66.1292 0.558335 68.4675 1.92535 69.7532 4.12793C71.0803 6.40176 71.0803 9.21443 69.7532 11.4883C68.426 13.7622 65.9767 15.1456 63.344 15.1084H26.4211L27.2747 15.9619L71.6311 60.3174C68.0111 63.5818 64.5271 66.9605 61.2473 70.5781L16.8909 26.2227L16.0374 25.3691V62.6602C15.9879 65.1985 14.6201 67.5366 12.4172 68.8223C10.1434 70.1492 7.33165 70.1492 5.05786 68.8223C2.85497 67.5366 1.48717 65.1985 1.43774 62.6602V7.80664Z" stroke="#0A0A0A"/>
</svg>